<?xml version="1.0" encoding="UTF-8"?>
<svg height="16px" viewBox="0 0 16 16" width="16px" xmlns="http://www.w3.org/2000/svg">
    <g fill="#241f31">
        <path d="m 12.144531 1.207031 c 0.53125 0.601563 0.855469 1.378907 0.855469 2.222657 v 9.144531 c 0 1.015625 -0.472656 1.933593 -1.210938 2.5625 c 0.960938 -0.289063 1.761719 -1.054688 2.039063 -2.085938 l 2.070313 -7.730469 c 0.425781 -1.589843 -0.53125 -3.25 -2.121094 -3.675781 z m 0 0"/>
        <path d="m 4 1 c -1.644531 0 -3 1.355469 -3 3 v 8 c 0 1.644531 1.355469 3 3 3 h 5 c 1.644531 0 3 -1.355469 3 -3 v -8 c 0 -1.644531 -1.355469 -3 -3 -3 z m 0 2 h 5 c 0.570312 0 1 0.429688 1 1 v 8 c 0 0.570312 -0.429688 1 -1 1 h -5 c -0.570312 0 -1 -0.429688 -1 -1 v -8 c 0 -0.570312 0.429688 -1 1 -1 z m 0 0"/>
        <path d="m 5.800781 5.601562 l 2.398438 1.796876 c 0.191406 0.144531 0.300781 0.367187 0.300781 0.601562 s -0.109375 0.457031 -0.300781 0.601562 l -2.398438 1.796876 c -0.152343 0.113281 -0.355469 0.132812 -0.523437 0.046874 c -0.171875 -0.082031 -0.277344 -0.257812 -0.277344 -0.445312 v -4 c 0 -0.1875 0.105469 -0.363281 0.277344 -0.445312 c 0.167968 -0.085938 0.371094 -0.066407 0.523437 0.046874 z m 0 0"/>
    </g>
</svg>