<?xml version="1.0" encoding="UTF-8"?>
<svg height="128px" viewBox="0 0 128 128" width="128px" xmlns="http://www.w3.org/2000/svg" xmlns:xlink="http://www.w3.org/1999/xlink">
    <clipPath id="a">
        <path d="m 46 5.988281 h 78 v 122.011719 h -78 z m 0 0"/>
    </clipPath>
    <linearGradient id="b" gradientTransform="matrix(0.965926 0.258819 -0.258819 0.965926 69.255176 -178.58337)" gradientUnits="userSpaceOnUse" x1="20.000002" x2="108" y1="272" y2="272">
        <stop offset="0" stop-color="#cd5f00"/>
        <stop offset="0.0909091" stop-color="#e36b00"/>
        <stop offset="0.181818" stop-color="#c55d00"/>
        <stop offset="0.818182" stop-color="#c55d00"/>
        <stop offset="0.909091" stop-color="#e36b00"/>
        <stop offset="1" stop-color="#cd5f00"/>
    </linearGradient>
    <clipPath id="c">
        <path d="m 46 5.988281 h 79 v 120.011719 h -79 z m 0 0"/>
    </clipPath>
    <clipPath id="d">
        <path d="m 46 13 h 67 v 98 h -67 z m 0 0"/>
    </clipPath>
    <linearGradient id="e" gradientTransform="matrix(0.965926 0.258819 -0.258819 0.965926 69.772814 -180.515222)" gradientUnits="userSpaceOnUse" x1="52" x2="77.451096" y1="234.123444" y2="234">
        <stop offset="0" stop-color="#7c1622"/>
        <stop offset="0.115244" stop-color="#dd354a"/>
        <stop offset="0.216886" stop-color="#a51d2d"/>
        <stop offset="0.901899" stop-color="#a51d2d"/>
        <stop offset="0.950114" stop-color="#dd354a"/>
        <stop offset="1" stop-color="#7c1622"/>
    </linearGradient>
    <clipPath id="f">
        <path d="m 46 5.988281 h 79 v 29.011719 h -79 z m 0 0"/>
    </clipPath>
    <clipPath id="g">
        <path d="m 17 3 h 81 v 119 h -81 z m 0 0"/>
    </clipPath>
    <clipPath id="h">
        <path d="m 58.992188 -1.191406 c -0.429688 2.265625 -1.425782 4.203125 -2.789063 5.824218 c -4.082031 4.863282 -11.46875 6.839844 -16.957031 6.046876 v 0.003906 l -0.515625 1.929687 l -21.59375 80.574219 c 8.992187 1.445312 13.042969 13.019531 11.820312 19.304688 c 1.472657 -0.609376 3.246094 -2.34375 4.539063 -2.285157 c 0.894531 1.550781 1.792968 3.097657 2.683594 4.648438 c 1.636718 -0.945313 3.265624 -1.886719 4.898437 -2.828125 c 0.945313 1.632812 1.886719 3.265625 2.832031 4.898437 c 1.632813 -0.941406 3.261719 -1.886719 4.894532 -2.828125 c 0.945312 1.632813 1.886718 3.265625 2.828124 4.898438 c 1.636719 -0.941406 3.269532 -1.882813 4.902344 -2.828125 l 2.828125 4.898437 c 1.632813 -0.941406 3.265625 -1.882812 4.898438 -2.828125 l 2.828125 4.898438 c 1.632812 -0.941407 3.265625 -1.882813 4.898437 -2.828125 l 2.828125 4.898437 c 1.636719 -0.941406 3.265625 -1.882812 4.902344 -2.828125 l 2.824219 4.898438 c 1.734375 -9.0625 12.433593 -12.933594 19.75 -11.875 l 0.515625 -1.933594 l 21.074218 -78.640625 l 0.519532 -1.933594 c -1.625 -0.320312 -3.113282 -0.949219 -4.441406 -1.808593 c -5.765626 -3.722657 -8.601563 -11.773438 -7.128907 -17.640626 c -1.546875 0.894532 -3.097656 1.789063 -4.644531 2.683594 c -0.945312 -1.632812 -1.882812 -3.273437 -2.832031 -4.898437 c -1.632813 0.941406 -3.265625 1.882812 -4.894531 2.828125 c -0.945313 -1.632813 -1.882813 -3.273438 -2.832032 -4.898438 c -1.632812 0.941406 -3.265625 1.882813 -4.894531 2.828125 c -0.945313 -1.632812 -1.886719 -3.273437 -2.832031 -4.898437 c -1.632813 0.941406 -3.265625 1.882812 -4.898438 2.828125 c -0.945312 -1.632813 -1.882812 -3.273438 -2.828125 -4.898438 c -1.632812 0.941407 -3.265625 1.882813 -4.898437 2.828125 c -0.945313 -1.632812 -1.882813 -3.273437 -2.828125 -4.898437 l -4.898438 2.824219 c -0.945312 -1.632813 -1.882812 -3.269532 -2.832031 -4.894532 c -1.632812 0.941406 -3.265625 1.882813 -4.894531 2.824219 c -0.945313 -1.632813 -1.886719 -3.265625 -2.828125 -4.894531 z m 0 0"/>
    </clipPath>
    <linearGradient id="i" gradientUnits="userSpaceOnUse" x1="10.000002" x2="98" y1="99.988801" y2="99.988801">
        <stop offset="0" stop-color="#ff7800"/>
        <stop offset="0.0909091" stop-color="#ff9a41"/>
        <stop offset="0.181818" stop-color="#ff7800"/>
        <stop offset="0.818182" stop-color="#ff7800"/>
        <stop offset="0.909091" stop-color="#ff9a41"/>
        <stop offset="1" stop-color="#ff7800"/>
    </linearGradient>
    <g clip-path="url(#a)">
        <path d="m 58.476562 0.738281 c -1.734374 9.0625 -12.433593 12.933594 -19.746093 11.875 l -21.589844 80.574219 c 8.992187 1.445312 13.039063 13.019531 11.816406 19.304688 c 1.472657 -0.609376 3.246094 -2.34375 4.539063 -2.285157 c 0.894531 1.550781 1.789062 3.097657 2.683594 4.648438 c 1.632812 -0.941407 3.265624 -1.886719 4.898437 -2.828125 c 0.945313 1.632812 1.886719 3.265625 2.828125 4.898437 c 1.636719 -0.941406 3.269531 -1.886719 4.902344 -2.828125 c 0.941406 1.632813 1.882812 3.265625 2.828125 4.898438 c 1.632812 -0.941406 3.265625 -1.886719 4.898437 -2.828125 c 0.941406 1.632812 1.886719 3.265625 2.828125 4.898437 c 1.632813 -0.941406 3.265625 -1.886718 4.898438 -2.828125 c 0.941406 1.632813 1.886719 3.265625 2.828125 4.898438 c 1.632812 -0.941407 3.265625 -1.886719 4.898437 -2.828125 c 0.945313 1.632812 1.886719 3.265625 2.828125 4.898437 c 1.632813 -0.941406 3.265625 -1.886719 4.898438 -2.828125 c 0.945312 1.632813 1.886718 3.265625 2.832031 4.898438 c 1.730469 -9.0625 12.429687 -12.933594 19.746094 -11.875 l 21.589843 -80.574219 c -8.667968 -1.703125 -13.382812 -12.226563 -11.570312 -19.449219 c -1.546875 0.894532 -3.09375 1.785156 -4.644531 2.679688 c -0.941407 -1.632813 -1.882813 -3.269532 -2.828125 -4.898438 c -1.632813 0.945313 -3.265625 1.886719 -4.898438 2.828125 c -0.945312 -1.632812 -1.882812 -3.269531 -2.832031 -4.898437 c -1.628906 0.945312 -3.261719 1.886718 -4.894531 2.828125 c -0.945313 -1.632813 -1.882813 -3.269531 -2.832032 -4.898438 c -1.632812 0.945313 -3.261718 1.886719 -4.894531 2.828125 c -0.945312 -1.632812 -1.886719 -3.269531 -2.832031 -4.898437 c -1.632812 0.941406 -3.265625 1.886719 -4.898438 2.828125 c -0.941406 -1.632813 -1.882812 -3.269532 -2.828124 -4.898438 c -1.632813 0.941406 -3.265626 1.886719 -4.898438 2.828125 c -0.941406 -1.632812 -1.882812 -3.269531 -2.828125 -4.898437 c -1.632813 0.941406 -3.265625 1.886718 -4.898437 2.828125 c -0.941407 -1.632813 -1.882813 -3.269531 -2.828126 -4.898438 z m 0 0" fill="url(#b)"/>
    </g>
    <g clip-path="url(#c)">
        <path d="m 58.992188 -1.191406 c -1.730469 9.058594 -12.433594 12.929687 -19.746094 11.871094 l -21.589844 80.578124 c 8.992188 1.441407 13.039062 13.019532 11.820312 19.304688 c 1.472657 -0.613281 3.246094 -2.34375 4.539063 -2.285156 c 0.894531 1.546875 1.789063 3.097656 2.683594 4.644531 c 1.632812 -0.941406 3.265625 -1.882813 4.898437 -2.828125 c 0.941406 1.632812 1.886719 3.265625 2.828125 4.898438 c 1.632813 -0.941407 3.265625 -1.882813 4.898438 -2.828126 c 0.945312 1.632813 1.886719 3.265626 2.828125 4.898438 c 1.632812 -0.941406 3.265625 -1.882812 4.898437 -2.828125 c 0.945313 1.632813 1.886719 3.265625 2.828125 4.902344 c 1.632813 -0.945313 3.269532 -1.886719 4.902344 -2.832031 c 0.941406 1.632812 1.882812 3.269531 2.828125 4.902343 c 1.632813 -0.945312 3.265625 -1.886719 4.898437 -2.832031 c 0.941407 1.636719 1.886719 3.269531 2.828126 4.902344 c 1.632812 -0.945313 3.265624 -1.886719 4.898437 -2.828125 c 0.941406 1.632812 1.886719 3.265625 2.828125 4.898437 c 1.734375 -9.0625 12.433594 -12.933594 19.746094 -11.878906 l 21.589844 -80.574219 c -8.664063 -1.703125 -13.382813 -12.226562 -11.566407 -19.449219 c -1.550781 0.894532 -3.097656 1.789063 -4.644531 2.683594 c -0.945312 -1.632812 -1.882812 -3.269531 -2.832031 -4.898437 c -1.632813 0.941406 -3.265625 1.882812 -4.894531 2.828125 c -0.945313 -1.632813 -1.886719 -3.269532 -2.832032 -4.898438 c -1.632812 0.941406 -3.265625 1.882813 -4.898437 2.828125 c -0.941407 -1.632812 -1.882813 -3.273437 -2.828125 -4.898437 c -1.632813 0.941406 -3.265625 1.882812 -4.898438 2.824218 c -0.945312 -1.628906 -1.882812 -3.269531 -2.832031 -4.894531 c -1.628906 0.941407 -3.261719 1.882813 -4.894531 2.824219 c -0.945313 -1.628906 -1.882813 -3.269531 -2.832032 -4.894531 c -1.632812 0.941406 -3.261718 1.882812 -4.894531 2.824219 c -0.945312 -1.628907 -1.882812 -3.269532 -2.832031 -4.894532 c -1.632812 0.941406 -3.265625 1.882813 -4.894531 2.824219 c -0.945313 -1.632813 -1.886719 -3.265625 -2.832031 -4.894531 z m 0 0" fill="#ff7800"/>
    </g>
    <g clip-path="url(#d)">
        <path d="m 41.999191 191.000885 l 43.998947 -0.001083 c 6.078479 0.001027 11.001356 4.925956 11.00309 10.99965 l -0.001645 64.001538 c 0.001735 6.073695 -4.922183 11.000345 -11.000662 10.999318 l -43.998947 0.001083 c -6.074706 -0.002038 -11.001356 -4.925956 -10.999317 -11.000662 l -0.002128 -64.000527 c 0.002039 -6.074705 4.925956 -11.001355 11.000662 -10.999317 z m 0 0" fill="none" stroke="#e66100" stroke-linecap="round" stroke-linejoin="round" stroke-width="2" transform="matrix(0.965926 0.258819 -0.258819 0.965926 69.772814 -180.515222)"/>
    </g>
    <path d="m 66.476562 44.417969 c -1.644531 -0.390625 -3.300781 0.601562 -3.738281 2.234375 l -2.785156 10.386718 l -0.515625 1.929688 l -3.363281 12.558594 c -0.300781 1.113281 0.039062 2.300781 0.878906 3.085937 c 0.839844 0.789063 2.046875 1.050781 3.136719 0.683594 l 20.902344 -7.070313 c 1.269531 -0.433593 2.230468 -1.492187 2.535156 -2.800781 l 0.058594 0.015625 l 0.515624 -1.933594 l -0.660156 -0.175781 c -0.164062 -0.503906 -0.425781 -0.964843 -0.773437 -1.363281 l -14.566407 -16.570312 c -0.425781 -0.488282 -0.992187 -0.828126 -1.625 -0.980469 z m 0 0" fill="url(#e)"/>
    <path d="m 68.652344 43.34375 l 14.566406 16.574219 c 0.859375 0.976562 1.171875 2.320312 0.835938 3.574219 c -0.339844 1.257812 -1.28125 2.265624 -2.515626 2.679687 l -20.898437 7.070313 c -1.089844 0.371093 -2.296875 0.109374 -3.136719 -0.679688 s -1.179687 -1.976562 -0.882812 -3.085938 l 6.667968 -24.878906 c 0.296876 -1.113281 1.183594 -1.96875 2.304688 -2.234375 c 1.125 -0.261719 2.300781 0.117188 3.058594 0.980469 z m 0 0" fill="#e01b24"/>
    <g clip-path="url(#f)">
        <path d="m 58.992188 -1.191406 c -1.730469 9.058594 -12.433594 12.929687 -19.746094 11.871094 l -0.515625 1.933593 c 7.3125 1.058594 18.011719 -2.8125 19.746093 -11.875 c 0.945313 1.628907 1.886719 3.265625 2.828126 4.898438 c 1.632812 -0.941407 3.265624 -1.886719 4.898437 -2.828125 c 0.945313 1.628906 1.886719 3.265625 2.828125 4.898437 c 1.632812 -0.941406 3.265625 -1.886719 4.898438 -2.828125 c 0.945312 1.628906 1.886718 3.265625 2.828124 4.898438 c 1.632813 -0.941406 3.265626 -1.886719 4.898438 -2.828125 c 0.945312 1.628906 1.886719 3.265625 2.832031 4.898437 c 1.632813 -0.941406 3.261719 -1.882812 4.894531 -2.828125 c 0.949219 1.628907 1.886719 3.265625 2.832032 4.898438 c 1.632812 -0.941407 3.265625 -1.882813 4.894531 -2.828125 c 0.949219 1.628906 1.886719 3.265625 2.832031 4.898437 c 1.632813 -0.941406 3.265625 -1.882812 4.898438 -2.828125 c 0.945312 1.628906 1.886718 3.265625 2.828125 4.898438 c 1.550781 -0.894532 3.097656 -1.789063 4.648437 -2.679688 c -1.816406 7.21875 2.898438 17.746094 11.566406 19.449219 l 0.515626 -1.933594 c -8.664063 -1.703125 -13.378907 -12.226562 -11.566407 -19.449219 c -1.546875 0.894532 -3.097656 1.789063 -4.644531 2.683594 c -0.945312 -1.632812 -1.882812 -3.269531 -2.832031 -4.898437 c -1.632813 0.941406 -3.265625 1.882812 -4.894531 2.828125 c -0.945313 -1.632813 -1.886719 -3.269532 -2.832032 -4.898438 c -1.632812 0.941406 -3.265625 1.882813 -4.898437 2.828125 c -0.941407 -1.632812 -1.882813 -3.273437 -2.828125 -4.898437 c -1.632813 0.941406 -3.265625 1.882812 -4.898438 2.824218 c -0.945312 -1.628906 -1.882812 -3.269531 -2.832031 -4.894531 c -1.628906 0.941407 -3.261719 1.882813 -4.894531 2.824219 c -0.945313 -1.628906 -1.882813 -3.269531 -2.832032 -4.894531 c -1.632812 0.941406 -3.261718 1.882812 -4.894531 2.824219 c -0.945312 -1.628907 -1.882812 -3.269532 -2.832031 -4.894532 c -1.632812 0.941406 -3.265625 1.882813 -4.894531 2.824219 c -0.945313 -1.632813 -1.886719 -3.265625 -2.832031 -4.894531 z m 0 0" fill="#ffffff" fill-opacity="0.337255"/>
    </g>
    <g clip-path="url(#g)">
        <g clip-path="url(#h)">
            <path d="m 26 3.992188 c 0.167969 2.300781 -0.289062 4.429687 -1.1875 6.347656 c -2.683594 5.753906 -9.308594 9.578125 -14.8125 10.230468 v 85.417969 c 9.058594 -0.933593 15.964844 9.203125 16.410156 15.589844 c 1.265625 -0.972656 2.53125 -3.105469 3.792969 -3.382813 c 1.265625 1.261719 2.53125 2.527344 3.796875 3.792969 l 4 -4 l 4 4 l 4 -4 l 4 4 l 4 -4 l 4 4 l 4 -4 l 4 4 l 4 -4 l 4 4 l 4 -4 l 4 4 c -0.671875 -9.203125 8.660156 -15.710937 16 -16.582031 v -85.417969 c -2.203125 0.148438 -4.308594 -0.296875 -6.230469 -1.167969 c -2.886719 -1.304687 -5.359375 -3.566406 -7.121093 -6.195312 v -0.003906 c -0.292969 -0.4375 -0.566407 -0.886719 -0.820313 -1.339844 v -0.003906 c -1.011719 -1.824219 -1.683594 -3.773438 -1.933594 -5.667969 v -0.003906 c -0.058593 -0.472657 -0.09375 -0.945313 -0.101562 -1.410157 c -1.265625 1.265626 -2.527344 2.53125 -3.792969 3.792969 c -1.335938 -1.332031 -2.664062 -2.671875 -4 -3.996093 c -1.335938 1.332031 -2.667969 2.664062 -4 3.996093 c -1.335938 -1.332031 -2.664062 -2.671875 -4 -3.996093 c -1.335938 1.332031 -2.667969 2.664062 -4 3.996093 c -1.335938 -1.332031 -2.664062 -2.671875 -4 -3.996093 c -1.335938 1.332031 -2.667969 2.664062 -4 3.996093 c -1.335938 -1.332031 -2.664062 -2.671875 -4 -3.996093 c -1.335938 1.332031 -2.667969 2.664062 -4 3.996093 c -1.335938 -1.332031 -2.664062 -2.671875 -4 -3.996093 c -1.335938 1.332031 -2.667969 2.664062 -4 3.996093 c -1.335938 -1.332031 -2.664062 -2.671875 -4 -3.996093 c -1.335938 1.332031 -2.667969 2.664062 -4 3.996093 c -1.332031 -1.332031 -2.664062 -2.667969 -4 -3.996093 z m 0 0" fill-opacity="0.2"/>
        </g>
    </g>
    <path d="m 26 3.992188 c 0.671875 9.199218 -8.664062 15.707031 -16 16.578124 v 83.417969 c 9.058594 -0.933593 15.964844 9.203125 16.410156 15.589844 c 1.265625 -0.972656 2.53125 -3.105469 3.796875 -3.382813 c 1.261719 1.265626 2.527344 2.527344 3.792969 3.792969 l 4 -4 l 4 4 l 4 -4 l 4 4 l 4 -4 l 4 4 l 4 -4 l 4 4 l 4 -4 l 4 4 l 4 -4 l 4 4 c -0.671875 -9.203125 8.660156 -15.710937 16 -16.582031 v -83.417969 c -8.808594 0.597657 -16.089844 -8.347656 -16.207031 -15.792969 c -1.265625 1.265626 -2.527344 2.53125 -3.792969 3.792969 c -1.335938 -1.332031 -2.664062 -2.671875 -4 -3.996093 c -1.335938 1.332031 -2.667969 2.664062 -4 3.996093 c -1.335938 -1.332031 -2.664062 -2.671875 -4 -3.996093 c -1.335938 1.332031 -2.667969 2.664062 -4 3.996093 c -1.335938 -1.332031 -2.664062 -2.671875 -4 -3.996093 c -1.335938 1.332031 -2.667969 2.664062 -4 3.996093 c -1.335938 -1.332031 -2.664062 -2.671875 -4 -3.996093 c -1.335938 1.332031 -2.667969 2.664062 -4 3.996093 c -1.335938 -1.332031 -2.664062 -2.671875 -4 -3.996093 c -1.335938 1.332031 -2.667969 2.664062 -4 3.996093 c -1.335938 -1.332031 -2.664062 -2.671875 -4 -3.996093 c -1.335938 1.332031 -2.667969 2.664062 -4 3.996093 c -1.332031 -1.332031 -2.664062 -2.667969 -4 -3.996093 z m 0 0" fill="url(#i)"/>
    <path d="m 26 1.992188 c 0.671875 9.199218 -8.664062 15.707031 -16 16.578124 v 83.417969 c 9.058594 -0.933593 15.964844 9.203125 16.410156 15.589844 c 1.265625 -0.972656 2.53125 -3.105469 3.796875 -3.382813 c 1.261719 1.265626 2.527344 2.527344 3.792969 3.792969 l 4 -4 l 4 4 l 4 -4 l 4 4 l 4 -4 l 4 4 l 4 -4 l 4 4 l 4 -4 l 4 4 l 4 -4 l 4 4 c -0.671875 -9.203125 8.660156 -15.710937 16 -16.582031 v -83.417969 c -8.808594 0.597657 -16.089844 -8.347656 -16.207031 -15.792969 c -1.265625 1.265626 -2.527344 2.53125 -3.792969 3.792969 c -1.335938 -1.332031 -2.664062 -2.671875 -4 -3.996093 c -1.335938 1.332031 -2.667969 2.664062 -4 3.996093 c -1.335938 -1.332031 -2.664062 -2.671875 -4 -3.996093 c -1.335938 1.332031 -2.667969 2.664062 -4 3.996093 c -1.335938 -1.332031 -2.664062 -2.671875 -4 -3.996093 c -1.335938 1.332031 -2.667969 2.664062 -4 3.996093 c -1.335938 -1.332031 -2.664062 -2.671875 -4 -3.996093 c -1.335938 1.332031 -2.667969 2.664062 -4 3.996093 c -1.335938 -1.332031 -2.664062 -2.671875 -4 -3.996093 c -1.335938 1.332031 -2.667969 2.664062 -4 3.996093 c -1.335938 -1.332031 -2.664062 -2.671875 -4 -3.996093 c -1.335938 1.332031 -2.667969 2.664062 -4 3.996093 c -1.332031 -1.332031 -2.664062 -2.667969 -4 -3.996093 z m 0 0" fill="#ffbe6f"/>
    <path d="m 32 16.988281 h 44 c 6.074219 0 11 4.925781 11 11 v 64 c 0 6.074219 -4.925781 11 -11 11 h -44 c -6.074219 0 -11 -4.925781 -11 -11 v -64 c 0 -6.074219 4.925781 -11 11 -11 z m 0 0" fill="none" stroke="#ffa348" stroke-linecap="round" stroke-linejoin="round" stroke-width="2"/>
    <path d="m 46.859375 44.511719 l 18.355469 12.238281 c 1.082031 0.722656 1.734375 1.9375 1.734375 3.238281 c 0 1.304688 -0.652344 2.519531 -1.734375 3.238281 l -18.355469 12.238282 c -0.960937 0.640625 -2.191406 0.699218 -3.210937 0.15625 c -1.015626 -0.542969 -1.648438 -1.601563 -1.648438 -2.753906 v -25.753907 c 0 -1.152343 0.632812 -2.210937 1.648438 -2.753906 c 1.019531 -0.546875 2.25 -0.484375 3.210937 0.152344 z m 0 0" fill="#ff7800"/>
    <path d="m 26 1.992188 c 0.671875 9.199218 -8.664062 15.707031 -16 16.578124 v 2 c 7.335938 -0.871093 16.671875 -7.378906 16 -16.578124 c 1.335938 1.328124 2.667969 2.664062 4 3.996093 c 1.332031 -1.332031 2.664062 -2.664062 4 -3.996093 c 1.335938 1.324218 2.664062 2.664062 4 3.996093 c 1.332031 -1.332031 2.664062 -2.664062 4 -3.996093 c 1.335938 1.324218 2.664062 2.664062 4 3.996093 c 1.332031 -1.332031 2.664062 -2.664062 4 -3.996093 c 1.335938 1.324218 2.664062 2.664062 4 3.996093 c 1.332031 -1.332031 2.664062 -2.664062 4 -3.996093 c 1.335938 1.324218 2.664062 2.664062 4 3.996093 c 1.332031 -1.332031 2.664062 -2.664062 4 -3.996093 c 1.335938 1.324218 2.664062 2.664062 4 3.996093 c 1.332031 -1.332031 2.664062 -2.664062 4 -3.996093 c 1.335938 1.324218 2.664062 2.664062 4 3.996093 c 1.265625 -1.261719 2.527344 -2.527343 3.792969 -3.792969 c 0.117187 7.445313 7.398437 16.390626 16.207031 15.792969 v -2 c -8.808594 0.597657 -16.089844 -8.347656 -16.207031 -15.792969 c -1.265625 1.265626 -2.527344 2.53125 -3.792969 3.792969 c -1.335938 -1.332031 -2.664062 -2.671875 -4 -3.996093 c -1.335938 1.332031 -2.667969 2.664062 -4 3.996093 c -1.335938 -1.332031 -2.664062 -2.671875 -4 -3.996093 c -1.335938 1.332031 -2.667969 2.664062 -4 3.996093 c -1.335938 -1.332031 -2.664062 -2.671875 -4 -3.996093 c -1.335938 1.332031 -2.667969 2.664062 -4 3.996093 c -1.335938 -1.332031 -2.664062 -2.671875 -4 -3.996093 c -1.335938 1.332031 -2.667969 2.664062 -4 3.996093 c -1.335938 -1.332031 -2.664062 -2.671875 -4 -3.996093 c -1.335938 1.332031 -2.667969 2.664062 -4 3.996093 c -1.335938 -1.332031 -2.664062 -2.671875 -4 -3.996093 c -1.335938 1.332031 -2.667969 2.664062 -4 3.996093 c -1.332031 -1.332031 -2.664062 -2.667969 -4 -3.996093 z m 0 0" fill="#ffffff" fill-opacity="0.337255"/>
</svg>