<?xml version="1.0" encoding="UTF-8" standalone="no"?>
<!-- Created with Inkscape (http://www.inkscape.org/) -->

<svg
   width="1697.899"
   height="375.87732"
   viewBox="0 0 449.23554 99.450872"
   version="1.1"
   id="svg5"
   xml:space="preserve"
   sodipodi:docname="logo-light.svg"
   inkscape:version="1.3 (0e150ed6c4, 2023-07-21)"
   inkscape:export-filename="logo-light.png"
   inkscape:export-xdpi="109.47681"
   inkscape:export-ydpi="109.47681"
   xmlns:inkscape="http://www.inkscape.org/namespaces/inkscape"
   xmlns:sodipodi="http://sodipodi.sourceforge.net/DTD/sodipodi-0.dtd"
   xmlns="http://www.w3.org/2000/svg"
   xmlns:svg="http://www.w3.org/2000/svg"><sodipodi:namedview
     id="namedview7"
     pagecolor="#ffffff"
     bordercolor="#999999"
     borderopacity="1"
     inkscape:showpageshadow="0"
     inkscape:pageopacity="0"
     inkscape:pagecheckerboard="0"
     inkscape:deskcolor="#d1d1d1"
     inkscape:document-units="mm"
     showgrid="true"
     inkscape:zoom="0.59223264"
     inkscape:cx="922.77926"
     inkscape:cy="191.64766"
     inkscape:window-width="1920"
     inkscape:window-height="1131"
     inkscape:window-x="0"
     inkscape:window-y="0"
     inkscape:window-maximized="1"
     inkscape:current-layer="layer1"
     inkscape:lockguides="true"
     inkscape:export-bgcolor="#ffffff00"><inkscape:grid
       type="xygrid"
       id="grid365"
       spacingx="3.96875"
       spacingy="3.96875"
       originx="-124.36699"
       originy="-147.43461"
       units="mm"
       visible="true" /></sodipodi:namedview><defs
     id="defs2"><filter
       style="color-interpolation-filters:sRGB"
       inkscape:label="Greyscale"
       id="filter335"
       x="0"
       y="0"
       width="1"
       height="1"><feColorMatrix
         values="0.21 0.72 0.072 0 0 0.21 0.72 0.072 0 0 0.21 0.72 0.072 0 0 0 0 0 1 0 "
         id="feColorMatrix333" /></filter><filter
       style="color-interpolation-filters:sRGB"
       inkscape:label="Greyscale"
       id="filter335-3"
       x="0"
       y="0"
       width="1"
       height="1"><feColorMatrix
         values="0.21 0.72 0.072 0 0 0.21 0.72 0.072 0 0 0.21 0.72 0.072 0 0 0 0 0 1 0 "
         id="feColorMatrix333-6" /></filter><filter
       style="color-interpolation-filters:sRGB"
       inkscape:label="Greyscale"
       id="filter335-35"
       x="0"
       y="0"
       width="1"
       height="1"><feColorMatrix
         values="0.21 0.72 0.072 0 0 0.21 0.72 0.072 0 0 0.21 0.72 0.072 0 0 0 0 0 1 0 "
         id="feColorMatrix333-62" /></filter><filter
       style="color-interpolation-filters:sRGB"
       inkscape:label="Drop Shadow"
       id="filter756"
       x="-0.024397193"
       y="-0.024397193"
       width="1.0487944"
       height="1.0487944"><feFlood
         flood-opacity="0.729412"
         flood-color="rgb(255,255,255)"
         result="flood"
         id="feFlood746" /><feComposite
         in="SourceGraphic"
         in2="flood"
         operator="in"
         result="composite1"
         id="feComposite748" /><feGaussianBlur
         in="composite1"
         stdDeviation="1"
         result="blur"
         id="feGaussianBlur750" /><feOffset
         dx="0"
         dy="0"
         result="offset"
         id="feOffset752" /><feComposite
         in="SourceGraphic"
         in2="offset"
         operator="over"
         result="composite2"
         id="feComposite754" /></filter><filter
       style="color-interpolation-filters:sRGB"
       inkscape:label="Greyscale"
       id="filter335-356"
       x="0"
       y="0"
       width="1"
       height="1"><feColorMatrix
         values="0.21 0.72 0.072 0 0 0.21 0.72 0.072 0 0 0.21 0.72 0.072 0 0 0 0 0 1 0 "
         id="feColorMatrix333-2" /></filter><filter
       style="color-interpolation-filters:sRGB"
       inkscape:label="Drop Shadow"
       id="filter756-9"
       x="-0.024397193"
       y="-0.024397193"
       width="1.0487944"
       height="1.0487944"><feFlood
         flood-opacity="0.729412"
         flood-color="rgb(255,255,255)"
         result="flood"
         id="feFlood746-1" /><feComposite
         in="SourceGraphic"
         in2="flood"
         operator="in"
         result="composite1"
         id="feComposite748-2" /><feGaussianBlur
         in="composite1"
         stdDeviation="1"
         result="blur"
         id="feGaussianBlur750-7" /><feOffset
         dx="0"
         dy="0"
         result="offset"
         id="feOffset752-0" /><feComposite
         in="SourceGraphic"
         in2="offset"
         operator="over"
         result="composite2"
         id="feComposite754-9" /></filter><filter
       style="color-interpolation-filters:sRGB"
       inkscape:label="Greyscale"
       id="filter335-3562"
       x="0"
       y="0"
       width="1"
       height="1"><feColorMatrix
         values="0.21 0.72 0.072 0 0 0.21 0.72 0.072 0 0 0.21 0.72 0.072 0 0 0 0 0 1 0 "
         id="feColorMatrix333-9" /></filter><filter
       style="color-interpolation-filters:sRGB"
       inkscape:label="Drop Shadow"
       id="filter756-1"
       x="-0.024397193"
       y="-0.024397193"
       width="1.0487944"
       height="1.0487944"><feFlood
         flood-opacity="0.729412"
         flood-color="rgb(255,255,255)"
         result="flood"
         id="feFlood746-2" /><feComposite
         in="SourceGraphic"
         in2="flood"
         operator="in"
         result="composite1"
         id="feComposite748-7" /><feGaussianBlur
         in="composite1"
         stdDeviation="1"
         result="blur"
         id="feGaussianBlur750-0" /><feOffset
         dx="0"
         dy="0"
         result="offset"
         id="feOffset752-9" /><feComposite
         in="SourceGraphic"
         in2="offset"
         operator="over"
         result="composite2"
         id="feComposite754-3" /></filter></defs><g
     inkscape:label="Layer 1"
     inkscape:groupmode="layer"
     id="layer1"
     transform="translate(-59.172753,-97.3829)"><text
       xml:space="preserve"
       style="font-size:78.5714px;font-family:Overpass;-inkscape-font-specification:Overpass;fill:#000000;stroke-width:0.026536;-inkscape-stroke:none;stop-color:#000000"
       x="183.35872"
       y="171.77029"
       id="text452"><tspan
         sodipodi:role="line"
         id="tspan450"
         style="font-style:normal;font-variant:normal;font-weight:normal;font-stretch:normal;font-family:Cantarell;-inkscape-font-specification:Cantarell;fill:#000000;stroke-width:0.026536"
         x="183.35872"
         y="171.77029">Multiplex</tspan></text><g
       id="g1"
       transform="matrix(0.77412506,0,0,0.77412506,51.431502,98.305197)"><g
         clip-path="url(#a)"
         id="g19"><path
           d="m 58.476562,0.738281 c -1.734374,9.0625 -12.433593,12.933594 -19.746093,11.875 L 17.140625,93.1875 c 8.992187,1.445312 13.039063,13.01953 11.816406,19.30469 1.472657,-0.60938 3.246094,-2.34375 4.539063,-2.28516 0.894531,1.55078 1.789062,3.09766 2.683594,4.64844 1.632812,-0.94141 3.265624,-1.88672 4.898437,-2.82813 0.945313,1.63282 1.886719,3.26563 2.828125,4.89844 1.636719,-0.9414 3.269531,-1.88672 4.902344,-2.82812 0.941406,1.63281 1.882812,3.26562 2.828125,4.89843 1.632812,-0.9414 3.265625,-1.88671 4.898437,-2.82812 0.941406,1.63281 1.886719,3.26562 2.828125,4.89844 1.632813,-0.94141 3.265625,-1.88672 4.898438,-2.82813 0.941406,1.63281 1.886719,3.26563 2.828125,4.89844 1.632812,-0.94141 3.265625,-1.88672 4.898437,-2.82813 0.945313,1.63282 1.886719,3.26563 2.828125,4.89844 1.632813,-0.9414 3.265625,-1.88672 4.898438,-2.82812 0.945312,1.63281 1.886718,3.26562 2.832031,4.89843 1.730469,-9.0625 12.429687,-12.93359 19.746095,-11.875 L 123.88281,34.828125 C 115.21484,33.125 110.5,22.601562 112.3125,15.378906 c -1.54687,0.894532 -3.09375,1.785156 -4.64453,2.679688 -0.94141,-1.632813 -1.88281,-3.269532 -2.82813,-4.898438 -1.63281,0.945313 -3.26562,1.886719 -4.898434,2.828125 -0.945312,-1.632812 -1.882812,-3.269531 -2.832031,-4.898437 -1.628906,0.945312 -3.261719,1.886718 -4.894531,2.828125 C 91.269531,12.285156 90.332031,10.648438 89.382812,9.019531 87.75,9.964844 86.121094,10.90625 84.488281,11.847656 83.542969,10.214844 82.601562,8.578125 81.65625,6.949219 80.023438,7.890625 78.390625,8.835938 76.757812,9.777344 75.816406,8.144531 74.875,6.507812 73.929688,4.878906 72.296875,5.820312 70.664062,6.765625 69.03125,7.707031 68.089844,6.074219 67.148438,4.4375 66.203125,2.808594 64.570312,3.75 62.9375,4.695312 61.304688,5.636719 60.363281,4.003906 59.421875,2.367188 58.476562,0.738281 Z m 0,0"
           fill="url(#b)"
           id="path19" /></g><g
         clip-path="url(#c)"
         id="g20"><path
           d="M 58.992188,-1.191406 C 57.261719,7.867188 46.558594,11.738281 39.246094,10.679688 L 17.65625,91.257812 c 8.992188,1.441407 13.039062,13.019528 11.820312,19.304688 1.472657,-0.61328 3.246094,-2.34375 4.539063,-2.28516 0.894531,1.54688 1.789063,3.09766 2.683594,4.64454 1.632812,-0.94141 3.265625,-1.88282 4.898437,-2.82813 0.941406,1.63281 1.886719,3.26563 2.828125,4.89844 1.632813,-0.94141 3.265625,-1.88281 4.898438,-2.82813 0.945312,1.63282 1.886719,3.26563 2.828125,4.89844 1.632812,-0.94141 3.265625,-1.88281 4.898437,-2.82812 0.945313,1.63281 1.886719,3.26562 2.828125,4.90234 1.632813,-0.94531 3.269532,-1.88672 4.902344,-2.83203 0.941406,1.63281 1.882812,3.26953 2.828125,4.90234 1.632813,-0.94531 3.265625,-1.88672 4.898437,-2.83203 0.941407,1.63672 1.886719,3.26953 2.828126,4.90234 1.632812,-0.94531 3.265624,-1.88671 4.898437,-2.82812 0.941406,1.63281 1.886719,3.26562 2.828125,4.89844 1.734375,-9.0625 12.433594,-12.9336 19.74609,-11.87891 l 21.58985,-80.574219 c -8.66406,-1.703125 -13.38281,-12.226562 -11.56641,-19.449219 -1.55078,0.894532 -3.09765,1.789063 -4.64453,2.683594 -0.94531,-1.632812 -1.88281,-3.269531 -2.83203,-4.898437 -1.63281,0.941406 -3.26563,1.882812 -4.89453,2.828125 -0.945315,-1.632813 -1.886721,-3.269532 -2.832034,-4.898438 -1.632812,0.941406 -3.265625,1.882813 -4.898437,2.828125 C 91.789062,10.355469 90.847656,8.714844 89.902344,7.089844 88.269531,8.03125 86.636719,8.972656 85.003906,9.914062 84.058594,8.285156 83.121094,6.644531 82.171875,5.019531 80.542969,5.960938 78.910156,6.902344 77.277344,7.84375 76.332031,6.214844 75.394531,4.574219 74.445312,2.949219 72.8125,3.890625 71.183594,4.832031 69.550781,5.773438 68.605469,4.144531 67.667969,2.503906 66.71875,0.878906 65.085938,1.820312 63.453125,2.761719 61.824219,3.703125 60.878906,2.070312 59.9375,0.4375 58.992188,-1.191406 Z m 0,0"
           fill="#ff7800"
           id="path20" /></g><g
         clip-path="url(#d)"
         id="g21"><path
           d="m 41.999191,191.00088 43.998947,-0.001 c 6.078479,0.001 11.001356,4.92596 11.00309,10.99965 l -0.0016,64.00154 c 0.0017,6.07369 -4.922183,11.00034 -11.000662,10.99932 l -43.998947,0.001 c -6.074706,-0.002 -11.001356,-4.92595 -10.999317,-11.00066 l -0.0021,-64.00053 c 0.002,-6.0747 4.925956,-11.00135 11.000662,-10.99932 z m 0,0"
           fill="none"
           stroke="#e66100"
           stroke-linecap="round"
           stroke-linejoin="round"
           stroke-width="2"
           transform="rotate(14.999995,720.4611,174.73146)"
           id="path21" /></g><path
         d="m 66.476562,44.417969 c -1.644531,-0.390625 -3.300781,0.601562 -3.738281,2.234375 L 59.953125,57.039062 59.4375,58.96875 56.074219,71.527344 c -0.300781,1.113281 0.03906,2.300781 0.878906,3.085937 0.839844,0.789063 2.046875,1.050781 3.136719,0.683594 l 20.902344,-7.070313 c 1.269531,-0.433593 2.230468,-1.492187 2.535156,-2.800781 l 0.05859,0.01563 0.515624,-1.933594 -0.660156,-0.175781 C 83.277344,62.828125 83.015625,62.367188 82.667969,61.96875 L 68.101562,45.398438 c -0.425781,-0.488282 -0.992187,-0.828126 -1.625,-0.980469 z m 0,0"
         fill="url(#e)"
         id="path22" /><path
         d="M 68.652344,43.34375 83.21875,59.917969 c 0.859375,0.976562 1.171875,2.320312 0.835938,3.574219 -0.339844,1.257812 -1.28125,2.265624 -2.515626,2.679687 L 60.640625,73.242188 C 59.550781,73.613281 58.34375,73.351562 57.503906,72.5625 56.664062,71.773438 56.324219,70.585938 56.621094,69.476562 l 6.667968,-24.878906 c 0.296876,-1.113281 1.183594,-1.96875 2.304688,-2.234375 1.125,-0.261719 2.300781,0.117188 3.058594,0.980469 z m 0,0"
         fill="#e01b24"
         id="path23" /><g
         clip-path="url(#f)"
         id="g24"><path
           d="M 58.992188,-1.191406 C 57.261719,7.867188 46.558594,11.738281 39.246094,10.679688 l -0.515625,1.933593 c 7.3125,1.058594 18.011719,-2.8125 19.746093,-11.875 0.945313,1.628907 1.886719,3.265625 2.828126,4.898438 C 62.9375,4.695312 64.570312,3.75 66.203125,2.808594 67.148438,4.4375 68.089844,6.074219 69.03125,7.707031 70.664062,6.765625 72.296875,5.820312 73.929688,4.878906 74.875,6.507812 75.816406,8.144531 76.757812,9.777344 78.390625,8.835938 80.023438,7.890625 81.65625,6.949219 c 0.945312,1.628906 1.886719,3.265625 2.832031,4.898437 1.632813,-0.941406 3.261719,-1.882812 4.894531,-2.828125 0.949219,1.628907 1.886719,3.265625 2.832032,4.898438 1.632812,-0.941407 3.265625,-1.882813 4.894531,-2.828125 0.949219,1.628906 1.886719,3.265625 2.832031,4.898437 1.632814,-0.941406 3.265624,-1.882812 4.898434,-2.828125 0.94532,1.628906 1.88672,3.265625 2.82813,4.898438 1.55078,-0.894532 3.09766,-1.789063 4.64844,-2.679688 -1.81641,7.21875 2.89843,17.746094 11.5664,19.449219 l 0.51563,-1.933594 c -8.66406,-1.703125 -13.37891,-12.226562 -11.56641,-19.449219 -1.54687,0.894532 -3.09765,1.789063 -4.64453,2.683594 -0.94531,-1.632812 -1.88281,-3.269531 -2.83203,-4.898437 -1.63281,0.941406 -3.26563,1.882812 -4.89453,2.828125 -0.945315,-1.632813 -1.886721,-3.269532 -2.832034,-4.898438 -1.632812,0.941406 -3.265625,1.882813 -4.898437,2.828125 C 91.789062,10.355469 90.847656,8.714844 89.902344,7.089844 88.269531,8.03125 86.636719,8.972656 85.003906,9.914062 84.058594,8.285156 83.121094,6.644531 82.171875,5.019531 80.542969,5.960938 78.910156,6.902344 77.277344,7.84375 76.332031,6.214844 75.394531,4.574219 74.445312,2.949219 72.8125,3.890625 71.183594,4.832031 69.550781,5.773438 68.605469,4.144531 67.667969,2.503906 66.71875,0.878906 65.085938,1.820312 63.453125,2.761719 61.824219,3.703125 60.878906,2.070312 59.9375,0.4375 58.992188,-1.191406 Z m 0,0"
           fill="#ffffff"
           fill-opacity="0.337255"
           id="path24" /></g><g
         clip-path="url(#g)"
         id="g26"><g
           clip-path="url(#h)"
           id="g25"><path
             d="M 26,3.992188 C 26.167969,6.292969 25.710938,8.421875 24.8125,10.339844 22.128906,16.09375 15.503906,19.917969 10,20.570312 v 85.417968 c 9.058594,-0.93359 15.964844,9.20313 16.410156,15.58985 1.265625,-0.97266 2.53125,-3.10547 3.792969,-3.38282 1.265625,1.26172 2.53125,2.52735 3.796875,3.79297 l 4,-4 4,4 4,-4 4,4 4,-4 4,4 4,-4 4,4 4,-4 4,4 4,-4 4,4 c -0.671875,-9.20312 8.660156,-15.71094 16,-16.58203 V 19.988281 C 95.796875,20.136719 93.691406,19.691406 91.769531,18.820312 88.882812,17.515625 86.410156,15.253906 84.648438,12.625 v -0.0039 c -0.292969,-0.4375 -0.566407,-0.886719 -0.820313,-1.339844 v -0.0039 C 82.816406,9.453125 82.144531,7.503906 81.894531,5.609375 V 5.605469 C 81.835938,5.132812 81.800781,4.660156 81.792969,4.195312 80.527344,5.460938 79.265625,6.726562 78,7.988281 76.664062,6.65625 75.335938,5.316406 74,3.992188 72.664062,5.324219 71.332031,6.65625 70,7.988281 68.664062,6.65625 67.335938,5.316406 66,3.992188 64.664062,5.324219 63.332031,6.65625 62,7.988281 60.664062,6.65625 59.335938,5.316406 58,3.992188 56.664062,5.324219 55.332031,6.65625 54,7.988281 52.664062,6.65625 51.335938,5.316406 50,3.992188 48.664062,5.324219 47.332031,6.65625 46,7.988281 44.664062,6.65625 43.335938,5.316406 42,3.992188 40.664062,5.324219 39.332031,6.65625 38,7.988281 36.664062,6.65625 35.335938,5.316406 34,3.992188 32.664062,5.324219 31.332031,6.65625 30,7.988281 28.667969,6.65625 27.335938,5.320312 26,3.992188 Z m 0,0"
             fill-opacity="0.2"
             id="path25" /></g></g><path
         d="m 26,3.992188 c 0.671875,9.199218 -8.664062,15.707031 -16,16.578124 v 83.417968 c 9.058594,-0.93359 15.964844,9.20313 16.410156,15.58985 1.265625,-0.97266 2.53125,-3.10547 3.796875,-3.38282 1.261719,1.26563 2.527344,2.52735 3.792969,3.79297 l 4,-4 4,4 4,-4 4,4 4,-4 4,4 4,-4 4,4 4,-4 4,4 4,-4 4,4 c -0.671875,-9.20312 8.660156,-15.71094 16,-16.58203 V 19.988281 C 89.191406,20.585938 81.910156,11.640625 81.792969,4.195312 80.527344,5.460938 79.265625,6.726562 78,7.988281 76.664062,6.65625 75.335938,5.316406 74,3.992188 72.664062,5.324219 71.332031,6.65625 70,7.988281 68.664062,6.65625 67.335938,5.316406 66,3.992188 64.664062,5.324219 63.332031,6.65625 62,7.988281 60.664062,6.65625 59.335938,5.316406 58,3.992188 56.664062,5.324219 55.332031,6.65625 54,7.988281 52.664062,6.65625 51.335938,5.316406 50,3.992188 48.664062,5.324219 47.332031,6.65625 46,7.988281 44.664062,6.65625 43.335938,5.316406 42,3.992188 40.664062,5.324219 39.332031,6.65625 38,7.988281 36.664062,6.65625 35.335938,5.316406 34,3.992188 32.664062,5.324219 31.332031,6.65625 30,7.988281 28.667969,6.65625 27.335938,5.320312 26,3.992188 Z m 0,0"
         fill="url(#i)"
         id="path26" /><path
         d="m 26,1.992188 c 0.671875,9.199218 -8.664062,15.707031 -16,16.578124 v 83.417968 c 9.058594,-0.93359 15.964844,9.20313 16.410156,15.58985 1.265625,-0.97266 2.53125,-3.10547 3.796875,-3.38282 1.261719,1.26563 2.527344,2.52735 3.792969,3.79297 l 4,-4 4,4 4,-4 4,4 4,-4 4,4 4,-4 4,4 4,-4 4,4 4,-4 4,4 c -0.671875,-9.20312 8.660156,-15.71094 16,-16.58203 V 17.988281 C 89.191406,18.585938 81.910156,9.640625 81.792969,2.195312 80.527344,3.460938 79.265625,4.726562 78,5.988281 76.664062,4.65625 75.335938,3.316406 74,1.992188 72.664062,3.324219 71.332031,4.65625 70,5.988281 68.664062,4.65625 67.335938,3.316406 66,1.992188 64.664062,3.324219 63.332031,4.65625 62,5.988281 60.664062,4.65625 59.335938,3.316406 58,1.992188 56.664062,3.324219 55.332031,4.65625 54,5.988281 52.664062,4.65625 51.335938,3.316406 50,1.992188 48.664062,3.324219 47.332031,4.65625 46,5.988281 44.664062,4.65625 43.335938,3.316406 42,1.992188 40.664062,3.324219 39.332031,4.65625 38,5.988281 36.664062,4.65625 35.335938,3.316406 34,1.992188 32.664062,3.324219 31.332031,4.65625 30,5.988281 28.667969,4.65625 27.335938,3.320312 26,1.992188 Z m 0,0"
         fill="#ffbe6f"
         id="path27" /><path
         d="m 32,16.988281 h 44 c 6.074219,0 11,4.925781 11,11 v 64 C 87,98.0625 82.074219,102.98828 76,102.98828 H 32 c -6.074219,0 -11,-4.92578 -11,-10.999999 v -64 c 0,-6.074219 4.925781,-11 11,-11 z m 0,0"
         fill="none"
         stroke="#ffa348"
         stroke-linecap="round"
         stroke-linejoin="round"
         stroke-width="2"
         id="path28" /><path
         d="M 46.859375,44.511719 65.214844,56.75 c 1.082031,0.722656 1.734375,1.9375 1.734375,3.238281 0,1.304688 -0.652344,2.519531 -1.734375,3.238281 L 46.859375,75.464844 c -0.960937,0.640625 -2.191406,0.699218 -3.210937,0.15625 C 42.632812,75.078125 42,74.019531 42,72.867188 V 47.113281 c 0,-1.152343 0.632812,-2.210937 1.648438,-2.753906 1.019531,-0.546875 2.25,-0.484375 3.210937,0.152344 z m 0,0"
         fill="#ff7800"
         id="path29" /><path
         d="m 26,1.992188 c 0.671875,9.199218 -8.664062,15.707031 -16,16.578124 v 2 c 7.335938,-0.871093 16.671875,-7.378906 16,-16.578124 1.335938,1.328124 2.667969,2.664062 4,3.996093 1.332031,-1.332031 2.664062,-2.664062 4,-3.996093 1.335938,1.324218 2.664062,2.664062 4,3.996093 1.332031,-1.332031 2.664062,-2.664062 4,-3.996093 1.335938,1.324218 2.664062,2.664062 4,3.996093 1.332031,-1.332031 2.664062,-2.664062 4,-3.996093 1.335938,1.324218 2.664062,2.664062 4,3.996093 1.332031,-1.332031 2.664062,-2.664062 4,-3.996093 1.335938,1.324218 2.664062,2.664062 4,3.996093 1.332031,-1.332031 2.664062,-2.664062 4,-3.996093 1.335938,1.324218 2.664062,2.664062 4,3.996093 1.332031,-1.332031 2.664062,-2.664062 4,-3.996093 1.335938,1.324218 2.664062,2.664062 4,3.996093 C 79.265625,6.726562 80.527344,5.460938 81.792969,4.195312 81.910156,11.640625 89.191406,20.585938 98,19.988281 v -2 C 89.191406,18.585938 81.910156,9.640625 81.792969,2.195312 80.527344,3.460938 79.265625,4.726562 78,5.988281 76.664062,4.65625 75.335938,3.316406 74,1.992188 72.664062,3.324219 71.332031,4.65625 70,5.988281 68.664062,4.65625 67.335938,3.316406 66,1.992188 64.664062,3.324219 63.332031,4.65625 62,5.988281 60.664062,4.65625 59.335938,3.316406 58,1.992188 56.664062,3.324219 55.332031,4.65625 54,5.988281 52.664062,4.65625 51.335938,3.316406 50,1.992188 48.664062,3.324219 47.332031,4.65625 46,5.988281 44.664062,4.65625 43.335938,3.316406 42,1.992188 40.664062,3.324219 39.332031,4.65625 38,5.988281 36.664062,4.65625 35.335938,3.316406 34,1.992188 32.664062,3.324219 31.332031,4.65625 30,5.988281 28.667969,4.65625 27.335938,3.320312 26,1.992188 Z m 0,0"
         fill="#ffffff"
         fill-opacity="0.337255"
         id="path30" /></g></g></svg>
