<?xml version="1.0" encoding="UTF-8" standalone="no"?>
<svg
   viewBox="0 0 1954 512"
   version="1.1"
   id="svg4"
   sodipodi:docname="logo-dark.svg"
   xml:space="preserve"
   width="1954"
   height="512"
   inkscape:version="1.2.1 (9c6d41e410, 2022-07-14)"
   xmlns:inkscape="http://www.inkscape.org/namespaces/inkscape"
   xmlns:sodipodi="http://sodipodi.sourceforge.net/DTD/sodipodi-0.dtd"
   xmlns="http://www.w3.org/2000/svg"
   xmlns:svg="http://www.w3.org/2000/svg"><defs
     id="defs8"><rect
       x="724.9845"
       y="159.13969"
       width="1300.9667"
       height="235.42349"
       id="rect524" /></defs><sodipodi:namedview
     id="namedview6"
     pagecolor="#505050"
     bordercolor="#eeeeee"
     borderopacity="1"
     inkscape:showpageshadow="0"
     inkscape:pageopacity="0"
     inkscape:pagecheckerboard="0"
     inkscape:deskcolor="#505050"
     showgrid="false"
     inkscape:zoom="0.44042969"
     inkscape:cx="1170.4479"
     inkscape:cy="197.53437"
     inkscape:window-width="2560"
     inkscape:window-height="1371"
     inkscape:window-x="0"
     inkscape:window-y="0"
     inkscape:window-maximized="1"
     inkscape:current-layer="g4927" /><!--! Font Awesome Pro 6.1.2 by @fontawesome - https://fontawesome.com License - https://fontawesome.com/license (Commercial License) Copyright 2022 Fonticons, Inc. --><g
     id="g364"
     transform="matrix(0.86112165,0,0,0.86112165,55.379806,-3.6584511)"><g
       id="g4927"><g
         id="g4808"
         transform="matrix(0.89105522,0,0,0.89105522,67.425941,32.850937)"
         style="fill:#ffffff"><path
           d="m 322.6,192 c -20.2,0 -106.8,2 -162.6,86 v -86 c 0,-53 -43,-96 -96,-96 -17.62,0 -32,14.4 -32,32 0,17.6 14.38,32 32,32 17.62,0 32,14.38 32,32 v 256 c 0,35.25 28.75,64 64,64 h 176 c 8.875,0 16,-7.125 16,-15.1 V 480 c 0,-17.62 -14.38,-32 -32,-32 h -32 l 128,-96 v 144 c 0,8.875 7.125,16 16,16 h 32 c 8.875,0 16,-7.125 16,-16 V 289.9 c -10.25,2.625 -20.88,4.5 -32,4.5 -61.8,0 -113.5,-44 -125.4,-102.4 z"
           id="path2"
           sodipodi:nodetypes="ccsssssssssssccsssscsc"
           style="fill:#ffffff" /><path
           id="path237"
           style="stroke-width:0.407816;fill:#ffffff"
           d="m 403.57189,91.069738 c -10.81119,0 -19.57385,8.764937 -19.57385,19.576122 v 117.45219 c 0,10.81119 8.76266,19.57385 19.57385,19.57385 h 117.45219 c 10.81119,0 19.57612,-8.76266 19.57612,-19.57385 V 110.64586 c 0,-10.811185 -8.76901,-19.576122 -19.57612,-19.576122 z M 605.2234,104.13183 c -2.3341,0.10368 -4.70531,0.8398 -6.87693,2.32935 l -44.69552,30.81465 v 64.18999 l 44.69779,30.78515 c 8.65385,5.95412 20.55141,-0.11797 20.55141,-10.51726 V 116.9671 c 0,-7.7689 -6.67442,-13.14629 -13.67675,-12.83527 z m -142.47179,41.68119 a 23.557428,23.557428 0 0 1 23.55667,23.55893 23.557428,23.557428 0 0 1 -23.55667,23.55667 23.557428,23.557428 0 0 1 -23.55894,-23.55667 23.557428,23.557428 0 0 1 23.55894,-23.55893 z" /></g><text
         xml:space="preserve"
         transform="matrix(1.5892653,0,0,1.5892653,-405.84125,-111.53193)"
         id="text522"
         style="font-size:192px;font-family:Overpass;-inkscape-font-specification:Overpass;white-space:pre;shape-inside:url(#rect524);display:inline;fill:#ffffff;stroke:#000000;stroke-width:0.5;stroke-opacity:1"><tspan
           x="724.98438"
           y="327.14062"
           id="tspan5155">vintangle</tspan></text></g></g></svg>
